<?xml version="1.0" standalone="no"?>
<!DOCTYPE svg PUBLIC "-//W3C//DTD SVG 20010904//EN"
 "http://www.w3.org/TR/2001/REC-SVG-20010904/DTD/svg10.dtd">
<svg version="1.0" xmlns="http://www.w3.org/2000/svg"
 width="851.000000pt" height="300.000000pt" viewBox="0 0 851.000000 300.000000"
 preserveAspectRatio="xMidYMid meet">

<g transform="translate(0.000000,300.000000) scale(0.100000,-0.100000)"
fill="#000000" stroke="none">
<path d="M1662 2708 c-17 -17 -17 -2409 0 -2426 15 -15 200 -16 215 -1 8 8 13
8 17 0 10 -16 208 -15 224 1 17 17 17 2409 0 2426 -16 16 -210 16 -225 1 -8
-8 -13 -8 -17 0 -10 16 -198 15 -214 -1z m198 -1206 l0 -1187 -77 3 c-43 2
-79 5 -80 6 -2 1 -4 534 -5 1184 l-3 1182 83 0 82 0 0 -1188z m240 -3 c0
-1082 -1 -1191 -16 -1185 -9 3 -47 6 -85 6 l-69 0 0 1185 0 1185 85 0 85 0 0
-1191z"/>
<path d="M933 2691 c-213 -73 -354 -353 -370 -732 -13 -313 54 -567 188 -714
54 -58 101 -87 207 -125 35 -13 62 -29 62 -36 0 -11 -42 -14 -229 -14 -182 0
-231 -3 -240 -14 -8 -9 -11 -68 -9 -187 l3 -174 273 -3 c293 -3 301 -1 361 52
l25 21 -22 -32 c-12 -17 -39 -42 -60 -55 -36 -22 -46 -23 -307 -28 l-270 -5
-3 -174 c-2 -124 1 -177 10 -188 10 -12 57 -14 292 -11 276 3 282 4 331 28 73
36 164 133 212 227 80 155 112 290 119 508 14 400 -107 703 -321 801 -38 17
-87 38 -107 45 -21 7 -38 19 -38 26 0 10 47 13 223 13 163 0 228 3 240 13 16
11 17 31 15 187 l-3 175 -268 3 c-226 2 -272 0 -300 -13 l-32 -16 28 25 28 26
249 0 c137 0 260 4 274 10 l26 10 0 173 c0 121 -4 177 -12 185 -9 9 -82 12
-267 12 -220 -1 -263 -3 -308 -19z m557 -168 l0 -158 -244 3 c-228 3 -248 2
-284 -17 -116 -59 -181 -220 -182 -446 0 -124 15 -199 60 -290 40 -83 90 -129
187 -169 111 -46 147 -76 185 -154 33 -66 33 -67 33 -217 -1 -177 -18 -238
-85 -298 -50 -46 -73 -49 -345 -45 l-220 3 -5 153 -5 153 234 -1 c252 -1 251
-2 251 51 0 32 -21 51 -85 74 -27 10 -76 31 -107 47 -173 86 -283 403 -264
759 12 241 78 442 188 576 102 123 132 132 446 133 l242 0 0 -157z m0 -405 l0
-153 -212 3 c-117 2 -222 1 -234 -2 -25 -7 -41 -55 -26 -82 5 -9 51 -34 102
-55 51 -22 108 -50 126 -64 47 -36 121 -143 156 -226 88 -211 102 -560 32
-808 -50 -178 -150 -330 -250 -381 -48 -25 -54 -25 -321 -28 l-272 -3 -3 150
-3 150 260 3 c244 3 262 4 300 25 50 27 86 65 115 122 42 85 52 132 57 289 5
148 4 157 -22 238 -39 121 -88 172 -220 235 -141 66 -180 108 -211 229 -18 72
-15 275 5 340 17 55 74 143 101 157 18 9 93 13 273 13 l247 0 0 -152z m-450
-625 c58 -28 119 -66 135 -84 l30 -32 -45 34 c-25 19 -77 46 -115 61 -39 16
-83 40 -100 54 -37 31 -34 30 95 -33z"/>
<path d="M2283 2699 c-10 -10 -13 -61 -13 -186 0 -160 1 -173 19 -183 12 -6
132 -10 320 -10 l300 0 36 -35 c43 -44 47 -64 4 -24 -17 15 -45 31 -62 34 -18
3 -162 4 -322 3 l-290 -3 -3 -174 c-2 -119 1 -178 9 -187 9 -11 61 -14 260
-14 l249 0 0 -425 c0 -418 0 -425 -20 -425 -20 0 -20 7 -20 410 0 481 16 434
-143 427 -56 -3 -152 -5 -213 -5 -93 -1 -113 -4 -118 -17 -3 -9 -6 -371 -6
-804 0 -599 3 -790 12 -799 19 -19 586 -17 661 3 172 45 264 194 297 481 16
144 13 1355 -5 1485 -14 107 -51 237 -82 287 -36 59 -108 122 -163 144 -52 21
-72 23 -375 26 -247 2 -323 0 -332 -9z m689 -43 c134 -50 209 -189 238 -441
13 -119 13 -1321 0 -1440 -27 -235 -96 -376 -210 -429 -42 -20 -65 -21 -362
-24 l-318 -3 0 760 c0 417 -3 767 -6 776 -6 14 3 16 77 13 l84 -3 3 -622 2
-623 198 0 c113 0 214 5 237 11 61 17 108 73 131 155 18 64 19 112 19 714 0
582 -2 650 -17 701 -22 69 -53 117 -97 146 -33 23 -39 23 -332 23 l-299 0 0
139 c0 77 -3 147 -6 156 -6 15 18 16 302 13 264 -4 316 -7 356 -22z m-42 -421
c64 -61 65 -72 65 -745 0 -653 -2 -685 -52 -731 -24 -23 -31 -24 -209 -27
l-184 -4 -1 561 c-1 309 -2 567 -3 574 -1 8 24 13 87 15 l87 3 0 -401 c0 -258
4 -408 10 -421 12 -22 78 -27 98 -7 9 9 12 122 12 447 0 390 -2 436 -17 453
-15 16 -36 18 -259 18 l-243 0 -3 150 -3 151 292 -3 292 -3 31 -30z m35 -1519
c-37 -56 -55 -61 -262 -64 -189 -4 -193 -3 -193 17 0 19 7 20 203 23 191 3
204 4 232 25 38 28 39 28 20 -1z"/>
<path d="M3668 2675 c-14 -8 -37 -36 -50 -62 -32 -67 -33 -208 -1 -269 32 -60
47 -68 132 -74 72 -5 76 -6 85 -32 6 -18 6 -38 0 -55 -9 -27 -13 -28 -86 -31
-76 -3 -78 -2 -84 23 -5 21 -12 25 -40 25 -28 0 -34 -4 -34 -21 0 -47 25 -113
55 -145 32 -33 34 -34 113 -34 79 0 80 0 110 35 69 78 62 252 -14 352 -23 31
-28 32 -102 35 l-77 3 -3 41 c-4 59 18 76 99 72 58 -3 64 -5 67 -25 3 -20 9
-23 47 -23 42 0 44 1 36 23 -5 12 -14 41 -20 65 -7 23 -26 58 -42 77 -30 33
-34 35 -98 35 -38 -1 -77 -7 -93 -15z"/>
<path d="M4000 2685 c0 -3 30 -78 67 -168 l67 -162 5 -175 6 -175 40 -3 40 -3
-3 157 c-2 97 1 166 7 178 31 62 131 332 126 344 -3 9 -18 12 -47 10 l-41 -3
-40 -103 c-23 -56 -45 -101 -50 -99 -5 1 -28 49 -50 105 l-40 102 -44 0 c-23
0 -43 -2 -43 -5z"/>
<path d="M4462 2665 c-39 -33 -62 -102 -62 -184 0 -86 14 -134 52 -176 29 -34
32 -35 104 -35 72 0 75 -1 85 -27 6 -17 7 -40 2 -58 l-9 -30 -79 0 c-75 0 -80
1 -83 23 -3 18 -10 22 -38 22 -31 0 -34 -2 -34 -31 0 -50 21 -108 51 -140 25
-27 32 -29 107 -29 94 0 121 15 148 85 23 60 15 194 -14 250 -39 76 -54 85
-137 85 -72 0 -75 1 -81 26 -4 16 0 39 10 61 l16 34 68 -3 c58 -3 68 -6 77
-25 8 -18 18 -23 48 -23 32 0 37 3 33 18 -3 9 -10 35 -15 58 -6 22 -24 60 -41
82 l-30 42 -74 0 c-65 0 -78 -3 -104 -25z"/>
<path d="M4790 2615 l0 -75 166 0 c147 0 165 2 160 16 -3 9 -6 42 -6 75 l0 59
-160 0 -160 0 0 -75z"/>
<path d="M5197 2683 c-4 -3 -7 -37 -7 -75 l0 -68 169 0 168 0 -4 53 c-8 106 8
97 -167 97 -84 0 -156 -3 -159 -7z"/>
<path d="M5600 2606 l0 -84 71 -134 c111 -207 96 -194 138 -112 l36 69 3 -172
2 -173 46 0 c38 0 45 3 40 16 -3 9 -6 164 -6 345 0 181 -3 329 -7 329 -5 0
-41 -61 -82 -135 -40 -74 -77 -133 -82 -130 -4 3 -39 64 -76 135 -37 71 -71
130 -75 130 -5 0 -8 -38 -8 -84z"/>
<path d="M4910 2220 l0 -220 41 0 c33 0 40 3 35 16 -3 9 -6 108 -6 220 l0 204
-35 0 -35 0 0 -220z"/>
<path d="M5192 2223 l3 -218 166 -3 166 -2 -4 52 c-8 106 3 98 -133 98 l-120
0 0 70 0 70 111 0 c111 0 111 0 105 23 -3 12 -6 46 -6 75 l0 52 -145 0 -145 0
2 -217z"/>
<path d="M5600 2186 l0 -186 38 0 37 0 -3 118 c-3 99 -7 124 -28 166 -13 28
-24 56 -24 62 0 7 -4 16 -10 19 -7 4 -10 -58 -10 -179z"/>
<path d="M3590 1485 l0 -345 41 0 c38 0 41 2 35 23 -3 12 -6 167 -6 345 l0
322 -35 0 -35 0 0 -345z"/>
<path d="M3750 1742 l0 -88 138 -257 c75 -141 142 -257 147 -257 10 0 10 651
0 678 -3 8 -17 12 -36 10 l-31 -3 -1 -165 c-1 -99 -6 -167 -12 -169 -12 -5
-57 72 -135 228 -30 60 -58 110 -62 110 -5 1 -8 -39 -8 -87z"/>
<path d="M4130 1755 l0 -75 163 0 163 0 -4 63 c-2 34 -5 68 -7 75 -3 9 -44 12
-160 12 l-155 0 0 -75z"/>
<path d="M4665 1822 c-98 -20 -179 -217 -160 -391 12 -115 40 -186 95 -243 48
-50 50 -51 97 -45 40 4 54 12 85 46 20 23 44 63 53 89 23 63 31 234 15 314
-26 135 -114 245 -185 230z m70 -175 c54 -54 71 -162 41 -262 -20 -65 -50 -95
-96 -95 -64 0 -100 66 -100 182 0 82 30 163 71 192 33 23 47 20 84 -17z"/>
<path d="M4930 1755 l0 -75 110 0 110 0 -20 -40 c-26 -52 -45 -60 -129 -60
l-71 0 0 -220 0 -220 38 0 37 0 -4 120 c-4 160 -2 167 53 171 l43 4 49 -147
48 -148 48 0 c26 0 48 5 48 10 0 6 -4 10 -8 10 -4 0 -32 74 -62 165 l-54 164
22 40 c38 67 65 236 46 285 -5 14 -28 16 -155 16 l-149 0 0 -75z"/>
<path d="M5370 1744 l0 -86 59 -106 c33 -59 70 -128 82 -154 13 -27 26 -48 29
-48 3 0 21 30 40 68 l35 67 3 -172 2 -173 46 0 c38 0 45 3 40 16 -3 9 -6 164
-6 345 0 181 -3 329 -7 329 -5 0 -41 -61 -82 -135 -40 -74 -77 -133 -81 -130
-10 6 -121 208 -133 243 -17 44 -27 20 -27 -64z"/>
<path d="M5942 1760 l-21 -71 74 -247 c99 -333 84 -302 146 -302 42 0 49 2 40
14 -11 13 -185 582 -197 644 -3 17 -10 32 -14 32 -4 0 -16 -32 -28 -70z"/>
<path d="M6170 1755 l0 -75 166 0 c147 0 165 2 160 16 -3 9 -6 42 -6 75 l0 59
-160 0 -160 0 0 -75z"/>
<path d="M6580 1485 l0 -345 38 0 37 0 -2 322 c-2 178 -5 333 -8 346 -4 17
-12 22 -35 22 l-30 0 0 -345z"/>
<path d="M6895 1822 c-70 -15 -138 -126 -157 -260 -21 -151 23 -315 105 -388
36 -33 43 -36 86 -31 62 7 113 63 141 154 24 78 27 240 6 319 -34 127 -115
220 -181 206z m50 -154 c83 -38 101 -262 27 -349 -18 -23 -32 -29 -62 -29 -69
0 -105 74 -98 200 6 103 43 170 105 189 1 1 14 -4 28 -11z"/>
<path d="M7170 1746 l0 -85 66 -123 c180 -333 217 -398 228 -398 8 0 10 91 5
342 -3 189 -6 344 -7 346 -1 1 -18 2 -37 2 l-35 0 0 -175 c0 -99 -4 -175 -9
-175 -10 0 -46 62 -136 235 -31 61 -61 112 -66 113 -5 2 -9 -35 -9 -82z"/>
<path d="M4130 1360 l0 -220 38 0 37 0 0 142 0 143 110 3 110 3 -3 52 c-6 105
7 97 -152 97 l-140 0 0 -220z"/>
<path d="M5887 1570 c-11 -27 -127 -415 -127 -423 0 -4 23 -7 50 -7 28 0 50 1
50 3 0 2 18 63 40 136 32 109 37 137 29 159 -6 15 -17 54 -24 87 -7 33 -15 53
-18 45z"/>
<path d="M6290 1360 l0 -220 43 0 42 0 -6 217 c-3 120 -6 219 -7 221 -1 1 -18
2 -37 2 l-35 0 0 -220z"/>
<path d="M3750 1326 l0 -186 38 0 37 0 -3 112 c-3 94 -8 122 -28 164 -13 28
-24 58 -24 67 0 9 -4 19 -10 22 -7 4 -10 -58 -10 -179z"/>
<path d="M5370 1326 l0 -186 38 0 37 0 -4 118 c-3 99 -7 124 -27 164 -13 26
-24 54 -24 62 0 8 -4 18 -10 21 -7 4 -10 -58 -10 -179z"/>
<path d="M7170 1326 l0 -186 43 0 42 0 -6 117 c-5 102 -10 125 -33 167 -14 27
-26 55 -26 62 0 7 -4 16 -10 19 -7 4 -10 -58 -10 -179z"/>
<path d="M3592 893 l3 -78 93 -3 92 -3 25 -37 c50 -76 56 -191 13 -280 -24
-51 -38 -59 -103 -63 l-50 -3 -3 147 -3 147 -34 0 -35 0 0 -220 0 -220 93 0
c109 0 141 15 181 82 42 72 59 159 53 273 -7 132 -34 210 -96 275 l-46 49 -93
6 -93 7 3 -79z"/>
<path d="M4005 962 c-3 -3 -5 -158 -5 -344 l0 -338 38 0 37 0 0 142 0 143 85
3 85 3 0 -143 0 -143 44 -3 c37 -3 43 -1 37 13 -3 9 -6 162 -6 340 l0 323 -35
4 c-45 5 -48 -4 -43 -140 l3 -101 -83 -3 c-46 -2 -86 -1 -88 1 -2 2 -4 57 -4
122 l0 117 -30 4 c-17 3 -32 2 -35 0z"/>
<path d="M4610 967 c0 -1 -9 -33 -20 -71 l-19 -69 81 -273 82 -274 53 0 c53 0
53 0 39 23 -16 24 -196 623 -196 650 0 10 -4 17 -10 17 -5 0 -10 -1 -10 -3z"/>
<path d="M4890 895 l0 -75 105 0 c67 0 105 -4 105 -10 0 -21 -30 -70 -49 -80
-11 -5 -51 -10 -90 -10 l-71 0 0 -220 0 -220 38 0 37 0 0 142 0 143 45 5 45 5
48 -147 48 -148 51 0 c42 0 49 2 39 14 -7 8 -36 87 -66 177 -47 141 -53 165
-41 178 37 42 75 226 61 292 l-7 29 -149 0 -149 0 0 -75z"/>
<path d="M5330 882 l0 -88 83 -152 c45 -83 84 -152 87 -152 3 0 21 30 40 68
l35 67 3 -173 2 -172 43 0 42 0 -3 345 c-1 190 -6 345 -11 345 -5 0 -38 -55
-74 -122 -89 -166 -82 -157 -100 -134 -8 11 -41 72 -73 137 -32 65 -62 118
-66 119 -5 0 -8 -40 -8 -88z"/>
<path d="M5901 900 l-21 -69 76 -258 c42 -142 79 -266 81 -275 4 -14 17 -18
61 -18 52 0 54 1 40 18 -15 17 -198 623 -198 655 0 39 -19 13 -39 -53z"/>
<path d="M6120 954 c0 -13 126 -555 148 -638 5 -16 13 -31 18 -33 6 -2 27 67
48 153 21 86 41 166 45 178 6 15 20 -29 50 -157 31 -126 47 -177 57 -177 8 0
14 9 14 19 0 11 34 159 75 330 41 171 72 317 69 326 -4 9 -19 15 -40 15 -38 0
-30 19 -84 -207 -31 -131 -44 -160 -54 -126 -10 37 -65 279 -68 301 -7 55 -26
12 -63 -143 -22 -91 -45 -166 -50 -166 -5 0 -26 64 -46 143 -19 79 -39 155
-42 171 -6 23 -13 27 -42 27 -25 0 -35 -4 -35 -16z"/>
<path d="M6727 963 c-4 -3 -7 -159 -7 -345 l0 -338 43 0 42 0 -6 342 c-3 189
-6 344 -7 346 -4 5 -59 2 -65 -5z"/>
<path d="M6902 893 l3 -78 75 -3 c112 -3 118 -6 146 -65 44 -95 28 -246 -32
-299 -11 -9 -40 -18 -69 -19 l-50 -3 -3 147 -3 147 -34 0 -35 0 0 -220 0 -220
93 0 c109 0 141 15 181 82 94 160 65 451 -56 564 -30 29 -40 32 -126 39 l-93
7 3 -79z"/>
<path d="M7260 962 c0 -5 30 -85 67 -178 l68 -169 3 -167 3 -168 37 0 37 0 -3
144 -3 144 70 177 c39 97 71 188 71 201 0 23 -3 25 -42 22 l-43 -3 -40 -102
c-22 -57 -44 -103 -50 -103 -5 0 -28 46 -50 103 l-41 102 -42 3 c-23 2 -42 -1
-42 -6z"/>
<path d="M7827 963 c-17 -30 -38 -120 -35 -146 4 -24 117 -411 153 -524 5 -15
105 -18 105 -4 0 5 -4 11 -8 13 -5 2 -53 152 -107 333 -54 182 -99 331 -100
333 -2 2 -5 0 -8 -5z"/>
<path d="M4537 710 c-8 -20 -114 -368 -123 -403 -6 -27 -6 -27 45 -27 28 0 51
1 51 3 0 2 18 63 40 135 38 129 39 133 24 175 -9 23 -19 62 -23 87 -5 27 -10
39 -14 30z"/>
<path d="M5848 714 c-8 -12 -128 -413 -128 -426 0 -4 22 -8 48 -8 l49 0 40
135 c39 131 40 137 26 178 -8 23 -18 62 -22 87 -3 25 -9 40 -13 34z"/>
<path d="M7750 716 c0 -4 -108 -373 -120 -408 l-9 -28 55 0 c43 0 54 3 54 16
0 9 16 68 36 132 36 116 36 116 20 167 -9 29 -16 68 -16 88 0 21 -4 37 -10 37
-5 0 -10 -2 -10 -4z"/>
<path d="M5330 466 l0 -186 38 0 37 0 -3 117 c-3 101 -7 124 -28 163 -13 24
-24 52 -24 62 0 9 -4 20 -10 23 -7 4 -10 -58 -10 -179z"/>
</g>
</svg>
